<svg width="121" height="19" viewBox="0 0 121 19" fill="none" xmlns="http://www.w3.org/2000/svg">
<path d="M10.4648 18H6.16406V12.1875L0.339844 1.08984H4.95703L8.32031 8.12109H8.40234L11.7539 1.08984H16.2891L10.4648 12.1875V18ZM20.9062 7.88672C19.6289 7.88672 18.6797 8.83594 18.5742 10.1602H23.2148C23.1445 8.80078 22.2188 7.88672 20.9062 7.88672ZM23.3086 13.9688H27.0586C26.6602 16.6055 24.3164 18.3047 20.9766 18.3047C16.9102 18.3047 14.4844 15.8086 14.4844 11.6836C14.4844 7.55859 16.9336 4.93359 20.8359 4.93359C24.6797 4.93359 27.1289 7.45312 27.1289 11.3555V12.5273H18.5156V12.7852C18.5156 14.3086 19.5352 15.3633 21.0352 15.3633C22.1484 15.3633 23.0156 14.8359 23.3086 13.9688ZM28.5352 9.10547C28.5352 6.55078 30.7148 4.93359 34.2305 4.93359C37.7109 4.93359 39.8789 6.58594 39.9023 9.22266H36.1055C36.0703 8.30859 35.3438 7.73438 34.1953 7.73438C33.1758 7.73438 32.5195 8.17969 32.5195 8.83594C32.5195 9.33984 32.9883 9.70312 33.9492 9.90234L36.6211 10.4414C39.1641 10.9805 40.2539 12.0234 40.2539 13.957C40.2539 16.6055 37.8516 18.3047 34.2891 18.3047C30.5625 18.3047 28.4062 16.6055 28.2305 13.9922H32.2617C32.3789 14.9414 33.1406 15.5039 34.3594 15.5039C35.4609 15.5039 36.1406 15.1055 36.1406 14.4258C36.1406 13.9102 35.7539 13.6172 34.7578 13.4062L32.3438 12.9023C29.8477 12.375 28.5352 11.0625 28.5352 9.10547ZM51.3867 7.44141L48.5391 18H44.4844L40.0664 1.08984H44.5078L46.793 12.5156H46.8867L49.7109 1.08984H53.1562L55.9805 12.5156H56.0742L58.3594 1.08984H62.8008L58.3828 18H54.3281L51.4805 7.44141H51.3867ZM68.8359 7.88672C67.5586 7.88672 66.6094 8.83594 66.5039 10.1602H71.1445C71.0742 8.80078 70.1484 7.88672 68.8359 7.88672ZM71.2383 13.9688H74.9883C74.5898 16.6055 72.2461 18.3047 68.9062 18.3047C64.8398 18.3047 62.4141 15.8086 62.4141 11.6836C62.4141 7.55859 64.8633 4.93359 68.7656 4.93359C72.6094 4.93359 75.0586 7.45312 75.0586 11.3555V12.5273H66.4453V12.7852C66.4453 14.3086 67.4648 15.3633 68.9648 15.3633C70.0781 15.3633 70.9453 14.8359 71.2383 13.9688ZM84.7031 18.293C79.6406 18.293 76.4883 15.0703 76.4883 9.53906C76.4883 4.01953 79.6641 0.796875 84.7031 0.796875C88.9805 0.796875 92.2266 3.55078 92.3555 7.54688H88.2188C88.0078 5.55469 86.5898 4.24219 84.7031 4.24219C82.3594 4.24219 80.8711 6.24609 80.8711 9.52734C80.8711 12.8438 82.3477 14.8477 84.7148 14.8477C86.6016 14.8477 87.9727 13.6055 88.2422 11.625H92.3789C92.1797 15.6445 89.0625 18.293 84.7031 18.293ZM99.3047 15.3281C100.57 15.3281 101.672 14.5547 101.672 13.418V12.5391L99.3516 12.6914C98.2617 12.7734 97.6523 13.2773 97.6523 14.0273C97.6523 14.8359 98.3203 15.3281 99.3047 15.3281ZM97.8281 18.1875C95.4609 18.1875 93.5391 16.6172 93.5391 14.3086C93.5391 11.918 95.3789 10.582 98.6836 10.3828L101.672 10.207V9.48047C101.672 8.46094 100.945 7.89844 99.8555 7.89844C98.7305 7.89844 98.0156 8.48438 97.8984 9.26953H94.1602C94.2773 6.65625 96.5039 4.93359 100.066 4.93359C103.477 4.93359 105.738 6.67969 105.738 9.24609V18H101.695V16.1836H101.613C100.922 17.4727 99.3633 18.1875 97.8281 18.1875ZM107.73 18V5.23828H111.773V7.64062H111.855C112.512 5.94141 113.848 4.99219 115.805 4.99219C118.652 4.99219 120.234 6.77344 120.234 9.80859V18H116.086V10.6992C116.086 9.24609 115.395 8.37891 114.035 8.37891C112.711 8.37891 111.891 9.375 111.891 10.7812V18H107.73Z" fill="url(#paint0_linear_113_14540)"/>
<defs>
<linearGradient id="paint0_linear_113_14540" x1="-0.429582" y1="27" x2="17.9968" y2="-34.5452" gradientUnits="userSpaceOnUse">
<stop stop-color="#35AF07"/>
<stop offset="1" stop-color="#ACCD0F"/>
</linearGradient>
</defs>
</svg>
